<svg version="1.1" id="Layer_1" xmlns="http://www.w3.org/2000/svg" xmlns:xlink="http://www.w3.org/1999/xlink" x="0px" y="0px"
	 width="100%" viewBox="0 0 1940 668" enable-background="new 0 0 1940 668" xml:space="preserve">
<path fill="#FFFFFF" opacity="1.000000" stroke="none" 
	d="
M1238.000000,669.000000 
	C825.333313,669.000000 413.166656,669.000000 1.000000,669.000000 
	C1.000000,446.333344 1.000000,223.666672 1.000000,1.000000 
	C647.666687,1.000000 1294.333374,1.000000 1941.000000,1.000000 
	C1941.000000,223.666672 1941.000000,446.333344 1941.000000,669.000000 
	C1706.833374,669.000000 1472.666626,669.000000 1238.000000,669.000000 
M476.817078,327.312897 
	C487.467438,319.966492 496.803864,311.241425 504.425751,300.758942 
	C521.286133,277.570587 529.108643,251.133545 532.014038,223.011658 
	C536.088928,183.569092 530.831787,144.846558 522.407837,106.432388 
	C521.895447,104.095879 519.470093,100.971863 517.411194,100.500244 
	C515.065735,99.962990 511.452850,101.271011 509.577332,103.037048 
	C503.035034,109.197342 497.146332,116.044464 490.753265,122.371910 
	C474.016205,138.937027 455.528015,153.009491 432.891052,160.565384 
	C406.200165,169.474380 382.269318,183.302246 360.054840,200.342255 
	C358.685547,201.392563 357.244659,202.349472 354.959351,203.973663 
	C355.445557,193.861786 355.939819,184.939438 356.281982,176.011246 
	C356.529144,169.562332 353.774200,166.812729 347.284546,167.106155 
	C313.704163,168.624451 282.915436,178.397568 255.426224,198.080093 
	C231.988449,214.861740 214.668320,236.685089 201.829254,262.285736 
	C199.844727,266.242767 197.768631,270.153839 195.645477,274.259064 
	C195.107391,273.685089 194.918167,273.578644 194.890167,273.439728 
	C193.015732,264.143402 191.215179,254.831726 189.271790,245.549942 
	C187.810425,238.570435 182.199768,236.536194 176.681732,241.087677 
	C153.949600,259.837952 133.302109,280.562103 116.803375,305.140289 
	C91.952003,342.161438 81.103394,382.454529 90.150902,426.721436 
	C93.609245,443.642151 99.191620,460.135345 103.996109,476.768463 
	C104.912712,479.941772 104.393303,482.200806 102.630714,485.001343 
	C85.420593,512.346985 68.413498,539.820435 51.354057,567.260864 
	C49.109177,570.871887 48.353642,574.721619 52.043205,577.597168 
	C55.664577,580.419617 59.494747,579.531372 62.804073,576.399719 
	C72.846710,566.896240 82.772629,557.263550 92.999786,547.962524 
	C103.092873,538.783386 113.011803,529.301514 123.884361,521.117859 
	C138.790421,509.898254 156.124100,503.352386 174.817734,505.468689 
	C224.330719,511.074036 270.185272,501.450867 312.555328,475.317291 
	C351.722839,451.158966 381.908600,417.876892 408.126678,380.633759 
	C411.575409,375.734772 410.125793,371.203735 404.546082,369.040131 
	C396.974640,366.104187 389.313263,363.400146 380.657654,360.216797 
	C387.432037,359.030396 393.159180,358.101013 398.856903,357.017120 
	C426.358856,351.785400 452.767181,343.644348 476.817078,327.312897 
M1284.579346,445.104706 
	C1297.710205,439.154572 1307.893066,429.795868 1316.130493,417.633606 
	C1316.143066,434.287964 1316.300171,450.684753 1314.193848,466.785461 
	C1312.087402,482.888092 1303.089966,495.225403 1287.568481,501.681458 
	C1275.835205,506.561768 1263.538086,506.742401 1251.202148,504.693878 
	C1234.613647,501.939270 1222.497803,493.511841 1217.589722,476.729309 
	C1216.656494,473.538025 1214.670654,473.731720 1212.294922,473.734955 
	C1193.796875,473.760223 1175.298950,473.742188 1156.800903,473.763947 
	C1155.518433,473.765442 1154.236328,473.978821 1151.532227,474.221069 
	C1154.053833,482.703094 1155.508423,491.017487 1158.921509,498.430084 
	C1168.920532,520.146057 1186.870483,533.482422 1208.848755,540.983887 
	C1245.545532,553.508911 1282.413818,551.441040 1318.494995,538.417053 
	C1340.198364,530.583008 1357.015015,516.261719 1367.238281,494.985901 
	C1375.157959,478.504272 1377.357300,460.954926 1377.356689,442.954041 
	C1377.354370,372.294983 1377.358032,301.635895 1377.348022,230.976837 
	C1377.347778,229.381531 1377.213745,227.786255 1377.143188,226.215240 
	C1356.688232,226.215240 1336.623657,226.215240 1315.919678,226.215240 
	C1315.919678,236.499130 1315.919678,246.473206 1315.919678,256.447296 
	C1313.643921,254.522766 1312.570068,252.184189 1310.888550,250.426834 
	C1305.165039,244.445145 1300.007202,237.483261 1293.232422,233.024307 
	C1267.658569,216.192383 1239.652832,215.694016 1211.802856,225.339401 
	C1179.966797,236.365250 1161.477783,260.961121 1151.371948,292.068085 
	C1142.556152,319.204254 1143.262695,346.972534 1148.909668,374.608429 
	C1153.418457,396.674469 1162.604492,416.749542 1180.437866,431.157043 
	C1211.822754,456.512726 1246.882935,458.984833 1284.579346,445.104706 
M1501.101074,406.449738 
	C1486.981445,393.847626 1483.030396,377.242554 1482.078857,358.679504 
	C1538.572510,358.679504 1594.617798,358.679504 1650.998779,358.679504 
	C1652.256836,339.852722 1651.032593,321.818237 1646.086304,304.192596 
	C1637.257080,272.731049 1620.283936,247.320450 1590.595947,231.854095 
	C1567.443970,219.792740 1542.693604,217.155731 1517.270874,221.131165 
	C1485.826416,226.048233 1459.533325,240.321823 1441.287109,267.009766 
	C1414.559570,306.102631 1411.099854,348.593781 1426.217163,392.518585 
	C1437.616699,425.641022 1460.646973,448.046600 1494.284668,459.183167 
	C1517.583984,466.896942 1541.255005,468.222900 1565.256226,463.921844 
	C1606.212280,456.582489 1634.333862,429.343445 1646.383545,388.126801 
	C1645.766968,387.964783 1645.156982,387.665466 1644.546509,387.664398 
	C1627.387573,387.634155 1610.227783,387.570526 1593.070923,387.754913 
	C1591.763062,387.768951 1590.183594,389.350708 1589.232300,390.589294 
	C1586.612305,394.000183 1584.701294,398.049774 1581.728760,401.080627 
	C1562.001587,421.194763 1524.193237,423.834381 1501.101074,406.449738 
M885.048218,308.527618 
	C879.926880,328.881348 879.299316,349.464447 883.112061,370.011536 
	C889.853149,406.339844 907.366333,435.675873 941.387634,452.459320 
	C975.158569,469.119232 1010.554321,471.138916 1046.164795,458.982239 
	C1080.188110,447.367371 1098.946655,421.360168 1109.758545,388.304779 
	C1108.982422,387.998352 1108.540649,387.672058 1108.098389,387.671234 
	C1090.771973,387.638611 1073.445068,387.572479 1056.120605,387.755585 
	C1054.817261,387.769379 1053.308472,389.395905 1052.279663,390.600983 
	C1048.216797,395.359741 1044.971802,401.064606 1040.217896,404.939575 
	C1025.207153,417.175079 1007.589783,419.627045 988.861267,416.983002 
	C958.507568,412.697693 944.929810,386.413788 945.822449,358.463898 
	C1001.824158,358.463898 1057.848633,358.463898 1114.080933,358.463898 
	C1115.164185,342.492554 1114.342163,327.242615 1111.107178,312.184326 
	C1105.692139,286.979187 1094.703979,264.736816 1075.557861,247.006622 
	C1037.628540,211.882660 974.473389,211.548569 932.891235,239.051071 
	C907.948059,255.548508 893.283203,279.394958 885.048218,308.527618 
M701.333740,282.500183 
	C701.333740,233.937469 701.333740,185.374756 701.333740,136.880310 
	C677.272949,136.880310 654.000427,136.880310 630.523254,136.880310 
	C630.523254,244.680573 630.523254,352.210846 630.523254,459.619019 
	C706.865356,459.619019 782.894653,459.619019 858.635742,459.619019 
	C858.635742,439.624054 858.635742,420.054596 858.635742,399.950317 
	C806.024963,399.950317 753.820862,399.950317 701.333740,399.950317 
	C701.333740,360.771118 701.333740,322.135651 701.333740,282.500183 
M1689.115234,290.500000 
	C1689.115234,346.918091 1689.115234,403.336182 1689.115234,459.805359 
	C1710.868652,459.805359 1731.960083,459.805359 1753.425171,459.805359 
	C1753.425171,457.761780 1753.425171,455.953339 1753.425171,454.144867 
	C1753.425171,421.983612 1753.286621,389.821381 1753.514771,357.661743 
	C1753.578369,348.695129 1754.076782,339.630829 1755.511353,330.795746 
	C1758.506958,312.347382 1765.973633,296.312164 1783.299805,286.836609 
	C1796.010010,279.885559 1809.884155,278.691864 1824.030762,279.523804 
	C1829.248291,279.830658 1834.442749,280.530579 1840.008545,281.087311 
	C1840.008545,263.234955 1840.008545,245.928574 1840.008545,228.622192 
	C1840.008545,220.732574 1840.008423,220.732559 1832.226318,219.920959 
	C1800.563354,216.618820 1767.813232,235.214478 1753.283081,264.732971 
	C1752.622925,266.074341 1751.867920,267.369080 1751.157227,268.685547 
	C1750.801636,268.555176 1750.446167,268.424835 1750.090576,268.294464 
	C1750.090576,254.256607 1750.090576,240.218750 1750.090576,226.241592 
	C1729.548950,226.241592 1709.487183,226.241592 1689.115234,226.241592 
	C1689.115234,247.561234 1689.115234,268.530609 1689.115234,290.500000 
M980.549194,181.001663 
	C977.984497,184.797516 975.419800,188.593369 972.359619,193.122650 
	C987.471436,193.122650 1001.572083,193.205490 1015.668701,193.003586 
	C1017.197449,192.981689 1018.913696,191.542755 1020.187317,190.373703 
	C1041.393677,170.908813 1062.535278,151.373566 1083.735840,131.902267 
	C1084.518555,131.183380 1085.751709,130.955109 1086.775024,130.498184 
	C1086.364502,129.970551 1085.953979,129.442902 1085.543457,128.915268 
	C1084.255371,128.915268 1082.967285,128.915253 1081.679199,128.915268 
	C1061.200195,128.915298 1040.720337,129.011612 1020.243103,128.821991 
	C1016.770569,128.789825 1014.892639,130.022934 1013.059692,132.778091 
	C1002.455139,148.717606 991.675415,164.540634 980.549194,181.001663 
z"/>
<path fill="#121212" opacity="1.000000" stroke="none" 
	d="
M476.524475,327.524292 
	C452.767181,343.644348 426.358856,351.785400 398.856903,357.017120 
	C393.159180,358.101013 387.432037,359.030396 380.657654,360.216797 
	C389.313263,363.400146 396.974640,366.104187 404.546082,369.040131 
	C410.125793,371.203735 411.575409,375.734772 408.126678,380.633759 
	C381.908600,417.876892 351.722839,451.158966 312.555328,475.317291 
	C270.185272,501.450867 224.330719,511.074036 174.817734,505.468689 
	C156.124100,503.352386 138.790421,509.898254 123.884361,521.117859 
	C113.011803,529.301514 103.092873,538.783386 92.999786,547.962524 
	C82.772629,557.263550 72.846710,566.896240 62.804073,576.399719 
	C59.494747,579.531372 55.664577,580.419617 52.043205,577.597168 
	C48.353642,574.721619 49.109177,570.871887 51.354057,567.260864 
	C68.413498,539.820435 85.420593,512.346985 102.630714,485.001343 
	C104.393303,482.200806 104.912712,479.941772 103.996109,476.768463 
	C99.191620,460.135345 93.609245,443.642151 90.150902,426.721436 
	C81.103394,382.454529 91.952003,342.161438 116.803375,305.140289 
	C133.302109,280.562103 153.949600,259.837952 176.681732,241.087677 
	C182.199768,236.536194 187.810425,238.570435 189.271790,245.549942 
	C191.215179,254.831726 193.015732,264.143402 194.890167,273.439728 
	C194.918167,273.578644 195.107391,273.685089 195.645477,274.259064 
	C197.768631,270.153839 199.844727,266.242767 201.829254,262.285736 
	C214.668320,236.685089 231.988449,214.861740 255.426224,198.080093 
	C282.915436,178.397568 313.704163,168.624451 347.284546,167.106155 
	C353.774200,166.812729 356.529144,169.562332 356.281982,176.011246 
	C355.939819,184.939438 355.445557,193.861786 354.959351,203.973663 
	C357.244659,202.349472 358.685547,201.392563 360.054840,200.342255 
	C382.269318,183.302246 406.200165,169.474380 432.891052,160.565384 
	C455.528015,153.009491 474.016205,138.937027 490.753265,122.371910 
	C497.146332,116.044464 503.035034,109.197342 509.577332,103.037048 
	C511.452850,101.271011 515.065735,99.962990 517.411194,100.500244 
	C519.470093,100.971863 521.895447,104.095879 522.407837,106.432388 
	C530.831787,144.846558 536.088928,183.569092 532.014038,223.011658 
	C529.108643,251.133545 521.286133,277.570587 504.425751,300.758942 
	C496.803864,311.241425 487.467438,319.966492 476.524475,327.524292 
M298.811859,300.812164 
	C298.811859,300.812164 298.488403,300.509583 298.381073,299.720551 
	C299.285767,295.165649 300.050262,290.577332 301.125488,286.063049 
	C303.116089,277.705261 304.741058,269.198364 307.578278,261.126129 
	C309.459198,255.774597 313.184631,251.071365 316.594299,245.908661 
	C316.600861,245.661514 316.607452,245.414352 316.614044,245.167191 
	C316.237854,245.228531 315.861633,245.289856 314.822815,245.576828 
	C311.268463,248.027878 307.461945,250.185501 304.205811,252.983551 
	C293.258209,262.390930 288.799957,275.152527 286.052246,288.819122 
	C284.449066,296.792877 282.567291,304.729218 280.335480,312.546661 
	C279.667664,314.885895 277.757812,317.217834 275.803375,318.790558 
	C244.001129,344.381500 214.862366,372.740845 189.543564,404.713531 
	C174.891739,423.215881 162.019867,443.132477 148.482635,462.507416 
	C146.619736,465.173706 145.542130,468.388672 144.100937,471.349640 
	C144.539749,471.650146 144.978546,471.950653 145.417343,472.251160 
	C147.825714,470.299438 150.373749,468.495453 152.619720,466.371948 
	C167.150345,452.633911 181.719376,438.933441 196.054779,424.993317 
	C202.621628,418.607544 210.350433,415.546326 219.290054,414.838379 
	C230.553177,413.946381 241.917618,413.609741 253.033081,411.783875 
	C263.804535,410.014496 273.762115,405.494080 281.431366,397.262238 
	C283.059692,395.514435 283.754303,392.896698 284.956360,390.527496 
	C274.013123,393.286255 264.384857,396.719879 254.484955,397.928650 
	C244.403839,399.159607 234.055359,398.200806 223.823944,398.200806 
	C224.122742,395.936951 224.621704,395.140076 225.269348,394.491699 
	C271.789490,347.917023 322.545929,306.910156 380.956726,275.941681 
	C393.602844,269.236908 406.170563,262.381927 418.700592,255.462479 
	C421.473541,253.931213 423.933685,251.833496 426.938934,249.713669 
	C421.895996,247.138092 417.315247,247.186935 407.613831,249.552963 
	C381.865784,255.832550 357.982574,266.711700 334.981964,279.575745 
	C322.816040,286.380066 311.061859,293.920532 298.811859,300.812164 
z"/>
<path fill="#121212" opacity="1.000000" stroke="none" 
	d="
M1284.240967,445.275970 
	C1246.882935,458.984833 1211.822754,456.512726 1180.437866,431.157043 
	C1162.604492,416.749542 1153.418457,396.674469 1148.909668,374.608429 
	C1143.262695,346.972534 1142.556152,319.204254 1151.371948,292.068085 
	C1161.477783,260.961121 1179.966797,236.365250 1211.802856,225.339401 
	C1239.652832,215.694016 1267.658569,216.192383 1293.232422,233.024307 
	C1300.007202,237.483261 1305.165039,244.445145 1310.888550,250.426834 
	C1312.570068,252.184189 1313.643921,254.522766 1315.919678,256.447296 
	C1315.919678,246.473206 1315.919678,236.499130 1315.919678,226.215240 
	C1336.623657,226.215240 1356.688232,226.215240 1377.143188,226.215240 
	C1377.213745,227.786255 1377.347778,229.381531 1377.348022,230.976837 
	C1377.358032,301.635895 1377.354370,372.294983 1377.356689,442.954041 
	C1377.357300,460.954926 1375.157959,478.504272 1367.238281,494.985901 
	C1357.015015,516.261719 1340.198364,530.583008 1318.494995,538.417053 
	C1282.413818,551.441040 1245.545532,553.508911 1208.848755,540.983887 
	C1186.870483,533.482422 1168.920532,520.146057 1158.921509,498.430084 
	C1155.508423,491.017487 1154.053833,482.703094 1151.532227,474.221069 
	C1154.236328,473.978821 1155.518433,473.765442 1156.800903,473.763947 
	C1175.298950,473.742188 1193.796875,473.760223 1212.294922,473.734955 
	C1214.670654,473.731720 1216.656494,473.538025 1217.589722,476.729309 
	C1222.497803,493.511841 1234.613647,501.939270 1251.202148,504.693878 
	C1263.538086,506.742401 1275.835205,506.561768 1287.568481,501.681458 
	C1303.089966,495.225403 1312.087402,482.888092 1314.193848,466.785461 
	C1316.300171,450.684753 1316.143066,434.287964 1316.130493,417.633606 
	C1307.893066,429.795868 1297.710205,439.154572 1284.240967,445.275970 
M1267.842773,404.409088 
	C1287.541382,402.308960 1301.459473,391.749237 1309.166382,373.976685 
	C1319.922729,349.172058 1318.591797,323.712921 1309.110352,298.947540 
	C1300.991943,277.742432 1284.068970,268.288025 1261.766113,268.022644 
	C1240.276855,267.766968 1224.660156,277.813812 1216.283081,298.278625 
	C1206.239380,322.814758 1206.639526,347.899261 1215.760254,372.490265 
	C1224.363892,395.687042 1242.220459,406.279724 1267.842773,404.409088 
z"/>
<path fill="#131313" opacity="1.000000" stroke="none" 
	d="
M1501.381592,406.672089 
	C1524.193237,423.834381 1562.001587,421.194763 1581.728760,401.080627 
	C1584.701294,398.049774 1586.612305,394.000183 1589.232300,390.589294 
	C1590.183594,389.350708 1591.763062,387.768951 1593.070923,387.754913 
	C1610.227783,387.570526 1627.387573,387.634155 1644.546509,387.664398 
	C1645.156982,387.665466 1645.766968,387.964783 1646.383545,388.126801 
	C1634.333862,429.343445 1606.212280,456.582489 1565.256226,463.921844 
	C1541.255005,468.222900 1517.583984,466.896942 1494.284668,459.183167 
	C1460.646973,448.046600 1437.616699,425.641022 1426.217163,392.518585 
	C1411.099854,348.593781 1414.559570,306.102631 1441.287109,267.009766 
	C1459.533325,240.321823 1485.826416,226.048233 1517.270874,221.131165 
	C1542.693604,217.155731 1567.443970,219.792740 1590.595947,231.854095 
	C1620.283936,247.320450 1637.257080,272.731049 1646.086304,304.192596 
	C1651.032593,321.818237 1652.256836,339.852722 1650.998779,358.679504 
	C1594.617798,358.679504 1538.572510,358.679504 1482.078857,358.679504 
	C1483.030396,377.242554 1486.981445,393.847626 1501.381592,406.672089 
M1516.500000,317.880127 
	C1539.723022,317.880127 1562.946045,317.880127 1586.200928,317.880127 
	C1584.232056,284.689575 1563.224243,266.269928 1530.099365,268.088654 
	C1502.934448,269.580139 1481.307251,292.060730 1482.662109,317.880127 
	C1493.587769,317.880127 1504.543945,317.880127 1516.500000,317.880127 
z"/>
<path fill="#131313" opacity="1.000000" stroke="none" 
	d="
M885.150269,308.131042 
	C893.283203,279.394958 907.948059,255.548508 932.891235,239.051071 
	C974.473389,211.548569 1037.628540,211.882660 1075.557861,247.006622 
	C1094.703979,264.736816 1105.692139,286.979187 1111.107178,312.184326 
	C1114.342163,327.242615 1115.164185,342.492554 1114.080933,358.463898 
	C1057.848633,358.463898 1001.824158,358.463898 945.822449,358.463898 
	C944.929810,386.413788 958.507568,412.697693 988.861267,416.983002 
	C1007.589783,419.627045 1025.207153,417.175079 1040.217896,404.939575 
	C1044.971802,401.064606 1048.216797,395.359741 1052.279663,390.600983 
	C1053.308472,389.395905 1054.817261,387.769379 1056.120605,387.755585 
	C1073.445068,387.572479 1090.771973,387.638611 1108.098389,387.671234 
	C1108.540649,387.672058 1108.982422,387.998352 1109.758545,388.304779 
	C1098.946655,421.360168 1080.188110,447.367371 1046.164795,458.982239 
	C1010.554321,471.138916 975.158569,469.119232 941.387634,452.459320 
	C907.366333,435.675873 889.853149,406.339844 883.112061,370.011536 
	C879.299316,349.464447 879.926880,328.881348 885.150269,308.131042 
M1043.941162,296.661957 
	C1033.243774,269.843994 1009.350220,264.850342 984.473511,269.370514 
	C961.934570,273.465912 945.911194,293.787720 945.521179,317.589508 
	C980.056519,317.589508 1014.588196,317.589508 1050.195190,317.589508 
	C1048.130005,310.611389 1046.172119,303.995575 1043.941162,296.661957 
z"/>
<path fill="#121212" opacity="1.000000" stroke="none" 
	d="
M701.333740,283.000183 
	C701.333740,322.135651 701.333740,360.771118 701.333740,399.950317 
	C753.820862,399.950317 806.024963,399.950317 858.635742,399.950317 
	C858.635742,420.054596 858.635742,439.624054 858.635742,459.619019 
	C782.894653,459.619019 706.865356,459.619019 630.523254,459.619019 
	C630.523254,352.210846 630.523254,244.680573 630.523254,136.880310 
	C654.000427,136.880310 677.272949,136.880310 701.333740,136.880310 
	C701.333740,185.374756 701.333740,233.937469 701.333740,283.000183 
z"/>
<path fill="#131313" opacity="1.000000" stroke="none" 
	d="
M1689.115234,290.000000 
	C1689.115234,268.530609 1689.115234,247.561234 1689.115234,226.241592 
	C1709.487183,226.241592 1729.548950,226.241592 1750.090576,226.241592 
	C1750.090576,240.218750 1750.090576,254.256607 1750.090576,268.294464 
	C1750.446167,268.424835 1750.801636,268.555176 1751.157227,268.685547 
	C1751.867920,267.369080 1752.622925,266.074341 1753.283081,264.732971 
	C1767.813232,235.214478 1800.563354,216.618820 1832.226318,219.920959 
	C1840.008423,220.732559 1840.008545,220.732574 1840.008545,228.622192 
	C1840.008545,245.928574 1840.008545,263.234955 1840.008545,281.087311 
	C1834.442749,280.530579 1829.248291,279.830658 1824.030762,279.523804 
	C1809.884155,278.691864 1796.010010,279.885559 1783.299805,286.836609 
	C1765.973633,296.312164 1758.506958,312.347382 1755.511353,330.795746 
	C1754.076782,339.630829 1753.578369,348.695129 1753.514771,357.661743 
	C1753.286621,389.821381 1753.425171,421.983612 1753.425171,454.144867 
	C1753.425171,455.953339 1753.425171,457.761780 1753.425171,459.805359 
	C1731.960083,459.805359 1710.868652,459.805359 1689.115234,459.805359 
	C1689.115234,403.336182 1689.115234,346.918091 1689.115234,290.000000 
z"/>
<path fill="#131313" opacity="1.000000" stroke="none" 
	d="
M980.752075,180.702377 
	C991.675415,164.540634 1002.455139,148.717606 1013.059692,132.778091 
	C1014.892639,130.022934 1016.770569,128.789825 1020.243103,128.821991 
	C1040.720337,129.011612 1061.200195,128.915298 1081.679199,128.915268 
	C1082.967285,128.915253 1084.255371,128.915268 1085.543457,128.915268 
	C1085.953979,129.442902 1086.364502,129.970551 1086.775024,130.498184 
	C1085.751709,130.955109 1084.518555,131.183380 1083.735840,131.902267 
	C1062.535278,151.373566 1041.393677,170.908813 1020.187317,190.373703 
	C1018.913696,191.542755 1017.197449,192.981689 1015.668701,193.003586 
	C1001.572083,193.205490 987.471436,193.122650 972.359619,193.122650 
	C975.419800,188.593369 977.984497,184.797516 980.752075,180.702377 
z"/>
<path fill="#FAFAFA" opacity="1.000000" stroke="none" 
	d="
M316.084320,246.077911 
	C313.184631,251.071365 309.459198,255.774597 307.578278,261.126129 
	C304.741058,269.198364 303.116089,277.705261 301.125488,286.063049 
	C300.050262,290.577332 299.285767,295.165649 298.282471,300.306274 
	C298.281189,301.172974 298.378479,301.453918 298.475800,301.734863 
	C298.691101,301.532776 298.906433,301.330688 299.121765,301.128632 
	C311.061859,293.920532 322.816040,286.380066 334.981964,279.575745 
	C357.982574,266.711700 381.865784,255.832550 407.613831,249.552963 
	C417.315247,247.186935 421.895996,247.138092 426.938934,249.713669 
	C423.933685,251.833496 421.473541,253.931213 418.700592,255.462479 
	C406.170563,262.381927 393.602844,269.236908 380.956726,275.941681 
	C322.545929,306.910156 271.789490,347.917023 225.269348,394.491699 
	C224.621704,395.140076 224.122742,395.936951 223.823944,398.200806 
	C234.055359,398.200806 244.403839,399.159607 254.484955,397.928650 
	C264.384857,396.719879 274.013123,393.286255 284.956360,390.527496 
	C283.754303,392.896698 283.059692,395.514435 281.431366,397.262238 
	C273.762115,405.494080 263.804535,410.014496 253.033081,411.783875 
	C241.917618,413.609741 230.553177,413.946381 219.290054,414.838379 
	C210.350433,415.546326 202.621628,418.607544 196.054779,424.993317 
	C181.719376,438.933441 167.150345,452.633911 152.619720,466.371948 
	C150.373749,468.495453 147.825714,470.299438 145.417343,472.251160 
	C144.978546,471.950653 144.539749,471.650146 144.100937,471.349640 
	C145.542130,468.388672 146.619736,465.173706 148.482635,462.507416 
	C162.019867,443.132477 174.891739,423.215881 189.543564,404.713531 
	C214.862366,372.740845 244.001129,344.381500 275.803375,318.790558 
	C277.757812,317.217834 279.667664,314.885895 280.335480,312.546661 
	C282.567291,304.729218 284.449066,296.792877 286.052246,288.819122 
	C288.799957,275.152527 293.258209,262.390930 304.205811,252.983551 
	C307.461945,250.185501 311.268463,248.027878 315.292847,245.654770 
	C315.762878,245.732712 316.084320,246.077911 316.084320,246.077911 
z"/>
<path fill="#FAFAFA" opacity="1.000000" stroke="none" 
	d="
M315.624146,245.541962 
	C315.861633,245.289856 316.237854,245.228531 316.614044,245.167206 
	C316.607452,245.414352 316.600861,245.661514 316.339294,245.993286 
	C316.084320,246.077911 315.762878,245.732712 315.624146,245.541962 
z"/>
<path fill="#FDFDFD" opacity="1.000000" stroke="none" 
	d="
M1267.399170,404.480347 
	C1242.220459,406.279724 1224.363892,395.687042 1215.760254,372.490265 
	C1206.639526,347.899261 1206.239380,322.814758 1216.283081,298.278625 
	C1224.660156,277.813812 1240.276855,267.766968 1261.766113,268.022644 
	C1284.068970,268.288025 1300.991943,277.742432 1309.110352,298.947540 
	C1318.591797,323.712921 1319.922729,349.172058 1309.166382,373.976685 
	C1301.459473,391.749237 1287.541382,402.308960 1267.399170,404.480347 
z"/>
<path fill="#FCFCFC" opacity="1.000000" stroke="none" 
	d="
M1516.000000,317.880127 
	C1504.543945,317.880127 1493.587769,317.880127 1482.662109,317.880127 
	C1481.307251,292.060730 1502.934448,269.580139 1530.099365,268.088654 
	C1563.224243,266.269928 1584.232056,284.689575 1586.200928,317.880127 
	C1562.946045,317.880127 1539.723022,317.880127 1516.000000,317.880127 
z"/>
<path fill="#FCFCFC" opacity="1.000000" stroke="none" 
	d="
M1044.077637,297.020874 
	C1046.172119,303.995575 1048.130005,310.611389 1050.195190,317.589508 
	C1014.588196,317.589508 980.056519,317.589508 945.521179,317.589508 
	C945.911194,293.787720 961.934570,273.465912 984.473511,269.370514 
	C1009.350220,264.850342 1033.243774,269.843994 1044.077637,297.020874 
z"/>
<path fill="#121212" opacity="1.000000" stroke="none" 
	d="
M298.966797,300.970398 
	C298.906433,301.330688 298.691101,301.532776 298.475800,301.734863 
	C298.378479,301.453918 298.281189,301.172974 298.336121,300.700806 
	C298.488403,300.509583 298.811859,300.812164 298.966797,300.970398 
z"/>
</svg>