<svg version="1.1" id="Layer_1" xmlns="http://www.w3.org/2000/svg" xmlns:xlink="http://www.w3.org/1999/xlink" x="0px" y="0px"
	 width="100%" viewBox="0 0 976 1024" enable-background="new 0 0 976 1024" xml:space="preserve">
<path fill="#000000" opacity="1.000000" stroke="none" 
	d="
M878.669922,102.094498 
	C881.904053,104.566292 883.434875,107.621178 884.194458,111.158607 
	C891.503906,145.197708 897.397888,179.441879 900.428528,214.173370 
	C902.706116,240.274139 903.825073,266.380432 902.072998,292.518097 
	C898.722717,342.499634 887.866943,390.323883 860.420837,433.219452 
	C841.281372,463.132568 815.358154,485.585480 784.398560,502.476135 
	C746.809509,522.983582 706.163696,534.117676 664.266785,541.360413 
	C659.523376,542.180420 654.796692,543.104919 650.082581,544.079407 
	C649.178711,544.266235 648.110657,544.500122 647.412903,546.061035 
	C655.979797,549.255798 664.506104,552.442078 673.037720,555.613953 
	C676.471313,556.890503 679.969482,558.009094 683.346008,559.420410 
	C692.304016,563.164734 694.881470,571.359131 689.425781,579.311096 
	C674.708984,600.761475 658.790222,621.302979 641.738159,640.940613 
	C617.645813,668.685974 591.450989,694.240112 562.242554,716.643188 
	C518.993774,749.815186 471.449951,774.146179 418.219055,786.724304 
	C390.895569,793.180725 363.116058,796.283997 335.058899,795.969482 
	C319.937775,795.799988 304.864746,794.211304 289.783752,792.715576 
	C273.541840,791.104736 257.637512,794.679199 242.225281,799.895020 
	C218.910065,807.785339 199.286880,821.727722 181.001129,837.769470 
	C160.563217,855.699219 142.249390,875.829407 122.463959,894.440918 
	C114.446739,901.982361 106.361328,909.439026 97.723381,916.240417 
	C90.937019,921.583862 82.376259,919.888000 78.382324,912.813843 
	C75.857391,908.341553 76.300522,903.893799 78.717567,899.484375 
	C95.621765,868.646484 113.321884,838.281860 132.336426,808.687805 
	C144.138687,790.318970 156.306961,772.200928 169.018051,754.451233 
	C170.822250,751.931824 171.260483,749.661316 170.382050,746.600708 
	C164.318283,725.473328 156.517120,704.887512 151.004471,683.585815 
	C143.147736,653.226257 138.996170,622.432007 140.959335,591.090881 
	C142.977463,558.872253 151.133026,528.078369 164.530518,498.681061 
	C187.373322,448.558502 221.531143,406.908264 261.365601,369.557037 
	C271.570801,359.988037 282.209076,350.874115 292.787323,341.711517 
	C303.421722,332.500244 313.589569,336.113586 316.351715,350.008636 
	C319.045959,363.562103 321.624481,377.138763 324.205933,390.714325 
	C324.516174,392.345612 324.721893,393.947174 326.024445,395.236115 
	C328.663177,393.882721 329.277557,391.319458 330.353638,389.172668 
	C342.542053,364.857208 355.467560,340.985443 372.752106,319.800354 
	C412.958130,270.521179 463.778656,237.893005 525.668640,222.823090 
	C545.617126,217.965744 565.876282,215.087158 586.436157,214.712540 
	C596.240417,214.533890 601.419983,219.678619 601.070374,229.450806 
	C600.605957,242.430069 599.814758,255.397430 599.217712,268.372375 
	C599.128662,270.307373 598.764221,272.361145 600.099487,274.107391 
	C602.783630,274.695251 604.184509,272.720428 605.809570,271.488800 
	C637.276306,247.641968 670.474426,226.744278 707.303650,212.085831 
	C722.616577,205.991089 738.462952,201.266052 753.367065,194.109512 
	C779.496460,181.562943 802.042419,164.003662 822.992554,144.251816 
	C836.092834,131.900909 848.538452,118.898155 860.565735,105.497871 
	C866.087708,99.345581 870.756775,98.401894 878.669922,102.094498 
M408.994995,571.473999 
	C420.171265,561.230286 431.347015,550.986023 442.523926,540.742920 
	C484.531097,502.245605 529.891968,468.186981 578.127991,437.884369 
	C615.828613,414.200256 654.958984,393.071259 694.227905,372.170898 
	C701.282166,368.416321 708.402344,364.745392 714.874451,359.999512 
	C716.316284,358.942200 718.270447,357.873199 717.400452,355.659729 
	C716.641968,353.729980 714.648315,353.385254 712.758789,353.363739 
	C709.266296,353.323883 705.789062,353.241516 702.292236,353.758392 
	C675.865723,357.664581 651.039978,366.794250 626.592834,377.056519 
	C583.739868,395.045044 543.395508,417.637665 505.057281,443.863251 
	C503.753601,444.755035 502.577667,446.188202 500.063843,445.373871 
	C502.688110,434.638916 505.003479,423.797485 506.329651,412.804108 
	C507.673737,401.662170 510.346436,390.909912 514.164795,380.364014 
	C517.903748,370.037201 524.679321,361.268646 529.353516,351.346649 
	C524.567322,352.050323 521.296204,354.612244 517.995972,356.999176 
	C495.537903,373.242615 485.827209,396.735413 481.373566,422.895752 
	C478.853363,437.699249 476.477081,452.448425 470.537994,466.377563 
	C469.453278,468.921631 468.040741,470.977356 465.858429,472.670654 
	C441.344757,491.691528 418.287262,512.400085 396.067383,534.007446 
	C352.496643,576.377136 312.550049,621.923950 277.346802,671.531616 
	C264.904846,689.064514 252.846207,706.859009 243.131317,726.104065 
	C242.087845,728.171265 240.299774,730.295959 241.692673,733.007812 
	C244.337677,733.099487 245.825272,731.371826 247.380219,729.972961 
	C252.209473,725.628418 257.040100,721.276733 261.690582,716.743591 
	C283.405548,695.576355 305.181335,674.479004 327.433289,653.867981 
	C337.648804,644.405762 349.379761,639.217102 363.072754,637.555176 
	C371.062439,636.585449 379.031677,636.666260 387.020599,636.645020 
	C404.120239,636.599609 420.868134,634.416382 437.090851,628.791138 
	C448.201630,624.938538 458.559662,619.693237 467.666138,612.190857 
	C471.406189,609.109680 474.870117,605.702148 476.658264,601.025391 
	C477.123718,599.808044 477.658295,598.444031 476.675964,597.216125 
	C475.610382,595.884277 474.218781,596.441345 472.997406,596.884766 
	C470.341492,597.849060 467.671143,598.812073 465.115265,600.007629 
	C446.444275,608.740967 426.633911,611.729675 406.278809,610.988770 
	C396.321411,610.626343 386.401276,609.095276 376.396118,609.026245 
	C374.963043,609.016357 373.343445,609.229187 372.099701,607.237488 
	C383.731201,595.069458 396.261780,583.677490 408.994995,571.473999 
M285.702728,364.038177 
	C277.449310,365.707672 273.008942,371.392242 270.447906,378.847961 
	C269.639374,381.201721 269.389832,383.882050 271.834442,385.671143 
	C274.195465,387.399078 276.865173,386.807526 278.827362,385.272827 
	C284.100372,381.148743 288.528015,376.208984 290.538116,369.626984 
	C291.567474,366.256317 290.368713,364.076874 285.702728,364.038177 
z"/>
</svg>